<?xml version="1.0" encoding="UTF-8" standalone="no"?>
<svg
   xmlns:dc="http://purl.org/dc/elements/1.1/"
   xmlns:cc="http://creativecommons.org/ns#"
   xmlns:rdf="http://www.w3.org/1999/02/22-rdf-syntax-ns#"
   xmlns:svg="http://www.w3.org/2000/svg"
   xmlns="http://www.w3.org/2000/svg"
   viewBox="0 0 66.666664 66.666664"
   height="66.666664"
   width="66.666664"
   xml:space="preserve"
   id="svg2"
   version="1.1"><metadata
     id="metadata8"><rdf:RDF><cc:Work
         rdf:about=""><dc:format>image/svg+xml</dc:format><dc:type
           rdf:resource="http://purl.org/dc/dcmitype/StillImage" /></cc:Work></rdf:RDF></metadata><defs
     id="defs6"><clipPath
       id="clipPath18"
       clipPathUnits="userSpaceOnUse"><path
         id="path16"
         d="M 20.9,45.4 V 29.225 H 4.725 C 2.539,29.225 0.75,27.437 0.75,25.25 v 0 c 0,-2.187 1.789,-3.976 3.975,-3.976 v 0 H 20.9 V 5.1 c 0,-2.186 1.788,-3.975 3.975,-3.975 v 0 c 2.186,0 3.975,1.789 3.975,3.975 v 0 16.174 h 16.174 c 2.187,0 3.976,1.789 3.976,3.976 v 0 c 0,2.187 -1.789,3.975 -3.976,3.975 v 0 H 28.85 V 45.4 c 0,2.187 -1.789,3.975 -3.975,3.975 v 0 C 22.688,49.375 20.9,47.587 20.9,45.4" /></clipPath><linearGradient
       id="linearGradient28"
       spreadMethod="pad"
       gradientTransform="matrix(48.25,0,0,-48.25,0.75,25.25)"
       gradientUnits="userSpaceOnUse"
       y2="0"
       x2="1"
       y1="0"
       x1="0"><stop
         id="stop24"
         offset="0"
         style="stop-opacity:1;stop-color:#8ae1fc" /><stop
         id="stop26"
         offset="1"
         style="stop-opacity:1;stop-color:#48b8d0" /></linearGradient></defs><g
     transform="matrix(1.3333333,0,0,-1.3333333,0,66.666667)"
     id="g10"><g
       id="g12"><g
         clip-path="url(#clipPath18)"
         id="g14"><g
           id="g20"><g
             id="g22"><path
               id="path30"
               style="fill:url(#linearGradient28);stroke:none"
               d="M 20.9,45.4 V 29.225 H 4.725 C 2.539,29.225 0.75,27.437 0.75,25.25 v 0 c 0,-2.187 1.789,-3.976 3.975,-3.976 v 0 H 20.9 V 5.1 c 0,-2.186 1.788,-3.975 3.975,-3.975 v 0 c 2.186,0 3.975,1.789 3.975,3.975 v 0 16.174 h 16.174 c 2.187,0 3.976,1.789 3.976,3.976 v 0 c 0,2.187 -1.789,3.975 -3.976,3.975 v 0 H 28.85 V 45.4 c 0,2.187 -1.789,3.975 -3.975,3.975 v 0 C 22.688,49.375 20.9,47.587 20.9,45.4" /></g></g></g></g></g></svg>