<?xml version="1.0" encoding="UTF-8" standalone="no"?>
<svg
   xmlns:dc="http://purl.org/dc/elements/1.1/"
   xmlns:cc="http://creativecommons.org/ns#"
   xmlns:rdf="http://www.w3.org/1999/02/22-rdf-syntax-ns#"
   xmlns:svg="http://www.w3.org/2000/svg"
   xmlns="http://www.w3.org/2000/svg"
   viewBox="0 0 533.33331 266.66666"
   height="266.66666"
   width="533.33331"
   xml:space="preserve"
   id="svg2"
   version="1.1"><metadata
     id="metadata8"><rdf:RDF><cc:Work
         rdf:about=""><dc:format>image/svg+xml</dc:format><dc:type
           rdf:resource="http://purl.org/dc/dcmitype/StillImage" /></cc:Work></rdf:RDF></metadata><defs
     id="defs6"><clipPath
       id="clipPath18"
       clipPathUnits="userSpaceOnUse"><path
         id="path16"
         d="m 180.761,71.701 c -2.469,-1.27 -5.501,-1.904 -9.099,-1.904 v 0 c -2.258,0 -4.338,0.423 -6.242,1.27 v 0 c -1.433,0.636 -2.726,1.443 -3.879,2.421 v 0 l -3.148,-7.774 c 0.889,-0.532 1.809,-1.035 2.795,-1.471 v 0 c 3.103,-1.376 6.595,-2.063 10.474,-2.063 v 0 c 4.655,0 8.745,0.759 12.273,2.274 v 0 c 3.526,1.516 6.771,4.179 9.733,7.989 v 0 l -6.242,4.865 c -1.976,-2.469 -4.197,-4.337 -6.665,-5.607" /></clipPath><linearGradient
       id="linearGradient28"
       spreadMethod="pad"
       gradientTransform="matrix(363.59036,0,0,-363.59036,20.467468,69.744141)"
       gradientUnits="userSpaceOnUse"
       y2="0"
       x2="1"
       y1="0"
       x1="0"><stop
         id="stop24"
         offset="0"
         style="stop-opacity:1;stop-color:#8ae1fc" /><stop
         id="stop26"
         offset="1"
         style="stop-opacity:1;stop-color:#48b8d0" /></linearGradient><clipPath
       id="clipPath38"
       clipPathUnits="userSpaceOnUse"><path
         id="path36"
         d="m 174.867,106.382 c 3.089,-0.472 5.619,-1.663 7.586,-3.576 v 0 c 2.609,-2.54 3.985,-5.925 4.127,-10.157 v 0 h -17.277 l -2.828,-6.983 h 28.991 v 2.646 c 0,4.089 -0.565,7.739 -1.692,10.95 v 0 c -1.129,3.208 -2.734,5.924 -4.814,8.146 v 0 c -2.081,2.221 -4.567,3.914 -7.459,5.078 v 0 c -1.185,0.478 -2.43,0.831 -3.71,1.113 v 0 z" /></clipPath><linearGradient
       id="linearGradient48"
       spreadMethod="pad"
       gradientTransform="matrix(363.59036,0,0,-363.59036,20.467468,99.632355)"
       gradientUnits="userSpaceOnUse"
       y2="0"
       x2="1"
       y1="0"
       x1="0"><stop
         id="stop44"
         offset="0"
         style="stop-opacity:1;stop-color:#8ae1fc" /><stop
         id="stop46"
         offset="1"
         style="stop-opacity:1;stop-color:#48b8d0" /></linearGradient><clipPath
       id="clipPath58"
       clipPathUnits="userSpaceOnUse"><path
         id="path56"
         d="m 220.594,112.274 c -3.14,-1.305 -5.838,-3.121 -8.094,-5.448 v 0 c -2.258,-2.328 -4.004,-5.078 -5.237,-8.252 v 0 c -1.236,-3.174 -1.851,-6.631 -1.851,-10.369 v 0 c 0,-3.808 0.615,-7.299 1.851,-10.473 v 0 c 1.233,-3.174 2.962,-5.925 5.185,-8.253 v 0 c 2.22,-2.326 4.918,-4.125 8.093,-5.395 v 0 c 3.174,-1.269 6.664,-1.904 10.473,-1.904 v 0 c 3.597,0 7.017,0.635 10.263,1.904 v 0 c 3.242,1.27 6.065,3.279 8.463,6.031 v 0 l -6.136,5.819 c -2.962,-4.092 -7.16,-6.137 -12.59,-6.137 v 0 c -2.539,0 -4.832,0.477 -6.877,1.429 v 0 c -2.046,0.951 -3.791,2.274 -5.236,3.966 v 0 c -1.447,1.693 -2.576,3.651 -3.385,5.873 v 0 c -0.813,2.221 -1.217,4.601 -1.217,7.14 v 0 c 0,2.539 0.351,4.92 1.057,7.143 v 0 c 0.704,2.22 1.746,4.178 3.122,5.871 v 0 c 1.375,1.693 3.12,3.015 5.237,3.967 v 0 c 2.115,0.953 4.548,1.428 7.299,1.428 v 0 c 2.468,0 4.724,-0.475 6.771,-1.428 v 0 c 2.045,-0.952 3.95,-2.487 5.713,-4.602 v 0 l 6.56,5.818 c -2.47,2.68 -5.344,4.655 -8.622,5.925 v 0 c -3.281,1.27 -6.756,1.905 -10.422,1.905 v 0 c -3.809,0 -7.284,-0.654 -10.42,-1.958" /></clipPath><linearGradient
       id="linearGradient68"
       spreadMethod="pad"
       gradientTransform="matrix(363.59036,0,0,-363.59036,20.467468,88.205566)"
       gradientUnits="userSpaceOnUse"
       y2="0"
       x2="1"
       y1="0"
       x1="0"><stop
         id="stop64"
         offset="0"
         style="stop-opacity:1;stop-color:#8ae1fc" /><stop
         id="stop66"
         offset="1"
         style="stop-opacity:1;stop-color:#48b8d0" /></linearGradient><clipPath
       id="clipPath78"
       clipPathUnits="userSpaceOnUse"><path
         id="path76"
         d="M 259.262,143.431 V 63.449 h 8.251 V 87.57 c 0,2.821 0.299,5.396 0.9,7.724 v 0 c 0.599,2.327 1.516,4.338 2.751,6.03 v 0 c 1.233,1.694 2.82,2.998 4.761,3.914 v 0 c 1.938,0.916 4.248,1.376 6.93,1.376 v 0 c 3.878,0 6.734,-1.2 8.569,-3.596 v 0 c 1.833,-2.399 2.751,-5.679 2.751,-9.84 v 0 -29.729 h 8.252 v 30.576 c 0,2.962 -0.371,5.694 -1.112,8.199 v 0 c -0.74,2.503 -1.888,4.637 -3.438,6.401 v 0 c -1.552,1.762 -3.509,3.137 -5.871,4.125 v 0 c -2.364,0.988 -5.168,1.482 -8.412,1.482 v 0 c -1.904,0 -3.701,-0.248 -5.395,-0.741 v 0 c -1.693,-0.495 -3.226,-1.13 -4.602,-1.904 v 0 c -1.375,-0.777 -2.558,-1.639 -3.544,-2.592 v 0 c -0.989,-0.952 -1.764,-1.923 -2.328,-2.909 v 0 h -0.212 v 37.345 z" /></clipPath><linearGradient
       id="linearGradient88"
       spreadMethod="pad"
       gradientTransform="matrix(363.59036,0,0,-363.59036,20.467468,103.44043)"
       gradientUnits="userSpaceOnUse"
       y2="0"
       x2="1"
       y1="0"
       x1="0"><stop
         id="stop84"
         offset="0"
         style="stop-opacity:1;stop-color:#8ae1fc" /><stop
         id="stop86"
         offset="1"
         style="stop-opacity:1;stop-color:#48b8d0" /></linearGradient><clipPath
       id="clipPath98"
       clipPathUnits="userSpaceOnUse"><path
         id="path96"
         d="m 331.097,112.327 c -3.244,-1.27 -6.03,-3.052 -8.357,-5.342 v 0 c -2.328,-2.293 -4.163,-5.026 -5.502,-8.2 v 0 c -1.341,-3.174 -2.009,-6.701 -2.009,-10.58 v 0 c 0,-3.879 0.668,-7.405 2.009,-10.579 v 0 c 1.339,-3.174 3.174,-5.909 5.502,-8.199 v 0 c 2.327,-2.293 5.113,-4.073 8.357,-5.343 v 0 c 3.244,-1.269 6.772,-1.904 10.581,-1.904 v 0 c 3.809,0 7.334,0.635 10.578,1.904 v 0 c 3.245,1.27 6.031,3.05 8.36,5.343 v 0 c 2.326,2.29 4.16,5.025 5.5,8.199 v 0 c 1.339,3.174 2.011,6.7 2.011,10.579 v 0 c 0,3.879 -0.672,7.406 -2.011,10.58 v 0 c -1.34,3.174 -3.174,5.907 -5.5,8.2 v 0 c -2.329,2.29 -5.115,4.072 -8.36,5.342 v 0 c -3.244,1.27 -6.769,1.905 -10.578,1.905 v 0 c -3.809,0 -7.337,-0.635 -10.581,-1.905 m 3.334,-41.101 c -2.153,0.951 -4.004,2.255 -5.555,3.913 v 0 c -1.551,1.657 -2.734,3.597 -3.544,5.82 v 0 c -0.812,2.221 -1.217,4.636 -1.217,7.246 v 0 c 0,2.609 0.405,5.025 1.217,7.248 v 0 c 0.81,2.22 1.993,4.16 3.544,5.819 v 0 c 1.551,1.656 3.402,2.962 5.555,3.914 v 0 c 2.15,0.953 4.565,1.428 7.247,1.428 v 0 c 2.679,0 5.095,-0.475 7.247,-1.428 v 0 c 2.151,-0.952 4.002,-2.258 5.553,-3.914 v 0 c 1.551,-1.659 2.734,-3.599 3.546,-5.819 v 0 c 0.809,-2.223 1.216,-4.639 1.216,-7.248 v 0 c 0,-2.61 -0.407,-5.025 -1.216,-7.246 v 0 c -0.812,-2.223 -1.995,-4.163 -3.546,-5.82 v 0 c -1.551,-1.658 -3.402,-2.962 -5.553,-3.913 v 0 c -2.152,-0.952 -4.568,-1.429 -7.247,-1.429 v 0 c -2.682,0 -5.097,0.477 -7.247,1.429" /></clipPath><linearGradient
       id="linearGradient108"
       spreadMethod="pad"
       gradientTransform="matrix(363.59036,0,0,-363.59036,20.467468,88.205566)"
       gradientUnits="userSpaceOnUse"
       y2="0"
       x2="1"
       y1="0"
       x1="0"><stop
         id="stop104"
         offset="0"
         style="stop-opacity:1;stop-color:#8ae1fc" /><stop
         id="stop106"
         offset="1"
         style="stop-opacity:1;stop-color:#48b8d0" /></linearGradient><clipPath
       id="clipPath118"
       clipPathUnits="userSpaceOnUse"><path
         id="path116"
         d="m 54.811,139.296 c -4.692,-1.976 -8.746,-4.674 -12.166,-8.094 v 0 c -3.422,-3.422 -6.12,-7.477 -8.094,-12.167 v 0 c -1.975,-4.691 -2.962,-9.752 -2.962,-15.181 v 0 c 0,-5.432 0.987,-10.493 2.962,-15.182 v 0 c 1.974,-4.691 4.672,-8.747 8.094,-12.167 v 0 c 3.42,-3.422 7.474,-6.12 12.166,-8.094 v 0 c 4.69,-1.975 9.787,-2.962 15.287,-2.962 v 0 h 43.483 v 7.617 h -23.17 v 0.212 c 2.821,1.199 5.344,2.874 7.565,5.026 v 0 c 2.222,2.15 4.126,4.583 5.713,7.3 v 0 c 1.587,2.715 2.804,5.643 3.65,8.781 v 0 c 0.846,3.136 1.27,6.294 1.27,9.469 v 0 c 0,5.429 -0.989,10.49 -2.963,15.181 v 0 c -1.975,4.69 -4.673,8.745 -8.093,12.167 v 0 c -3.422,3.42 -7.476,6.118 -12.166,8.094 v 0 c -4.692,1.973 -9.787,2.962 -15.289,2.962 v 0 c -5.5,0 -10.597,-0.989 -15.287,-2.962 m 3.756,-63.267 c -3.527,1.55 -6.578,3.684 -9.152,6.401 v 0 c -2.575,2.715 -4.601,5.906 -6.083,9.574 v 0 c -1.481,3.667 -2.222,7.617 -2.222,11.85 v 0 c 0,4.16 0.723,8.074 2.169,11.743 v 0 c 1.445,3.667 3.455,6.859 6.03,9.574 v 0 c 2.574,2.714 5.624,4.867 9.152,6.454 v 0 c 3.526,1.587 7.406,2.38 11.637,2.38 v 0 c 4.233,0 8.11,-0.793 11.638,-2.38 v 0 c 3.526,-1.587 6.576,-3.74 9.151,-6.454 v 0 c 2.574,-2.715 4.585,-5.907 6.031,-9.574 v 0 c 1.445,-3.669 2.169,-7.583 2.169,-11.743 v 0 c 0,-4.233 -0.74,-8.183 -2.222,-11.85 v 0 c -1.48,-3.668 -3.509,-6.859 -6.083,-9.574 v 0 c -2.576,-2.717 -5.644,-4.851 -9.204,-6.401 v 0 c -3.563,-1.552 -7.389,-2.328 -11.48,-2.328 v 0 c -4.162,0 -8.005,0.776 -11.531,2.328" /></clipPath><linearGradient
       id="linearGradient128"
       spreadMethod="pad"
       gradientTransform="matrix(363.59036,0,0,-363.59036,20.467468,103.85352)"
       gradientUnits="userSpaceOnUse"
       y2="0"
       x2="1"
       y1="0"
       x1="0"><stop
         id="stop124"
         offset="0"
         style="stop-opacity:1;stop-color:#8ae1fc" /><stop
         id="stop126"
         offset="1"
         style="stop-opacity:1;stop-color:#48b8d0" /></linearGradient><clipPath
       id="clipPath138"
       clipPathUnits="userSpaceOnUse"><path
         id="path136"
         d="M 150.494,140.353 117.485,65.449 h 10.051 l 7.723,18.408 h 19.601 l 3.343,8.253 H 138.75 l 15.552,36.817 h 0.212 l 9.27,-23.042 4.744,11.709 -9.676,22.759 z" /></clipPath><linearGradient
       id="linearGradient148"
       spreadMethod="pad"
       gradientTransform="matrix(363.59036,0,0,-363.59036,20.467468,102.90137)"
       gradientUnits="userSpaceOnUse"
       y2="0"
       x2="1"
       y1="0"
       x1="0"><stop
         id="stop144"
         offset="0"
         style="stop-opacity:1;stop-color:#8ae1fc" /><stop
         id="stop146"
         offset="1"
         style="stop-opacity:1;stop-color:#48b8d0" /></linearGradient></defs><g
     transform="matrix(1.3333333,0,0,-1.3333333,0,266.66667)"
     id="g10"><g
       id="g12"><g
         clip-path="url(#clipPath18)"
         id="g14"><g
           id="g20"><g
             id="g22"><path
               id="path30"
               style="fill:url(#linearGradient28);stroke:none"
               d="m 180.761,71.701 c -2.469,-1.27 -5.501,-1.904 -9.099,-1.904 v 0 c -2.258,0 -4.338,0.423 -6.242,1.27 v 0 c -1.433,0.636 -2.726,1.443 -3.879,2.421 v 0 l -3.148,-7.774 c 0.889,-0.532 1.809,-1.035 2.795,-1.471 v 0 c 3.103,-1.376 6.595,-2.063 10.474,-2.063 v 0 c 4.655,0 8.745,0.759 12.273,2.274 v 0 c 3.526,1.516 6.771,4.179 9.733,7.989 v 0 l -6.242,4.865 c -1.976,-2.469 -4.197,-4.337 -6.665,-5.607" /></g></g></g></g><g
       id="g32"><g
         clip-path="url(#clipPath38)"
         id="g34"><g
           id="g40"><g
             id="g42"><path
               id="path50"
               style="fill:url(#linearGradient48);stroke:none"
               d="m 174.867,106.382 c 3.089,-0.472 5.619,-1.663 7.586,-3.576 v 0 c 2.609,-2.54 3.985,-5.925 4.127,-10.157 v 0 h -17.277 l -2.828,-6.983 h 28.991 v 2.646 c 0,4.089 -0.565,7.739 -1.692,10.95 v 0 c -1.129,3.208 -2.734,5.924 -4.814,8.146 v 0 c -2.081,2.221 -4.567,3.914 -7.459,5.078 v 0 c -1.185,0.478 -2.43,0.831 -3.71,1.113 v 0 z" /></g></g></g></g><g
       id="g52"><g
         clip-path="url(#clipPath58)"
         id="g54"><g
           id="g60"><g
             id="g62"><path
               id="path70"
               style="fill:url(#linearGradient68);stroke:none"
               d="m 220.594,112.274 c -3.14,-1.305 -5.838,-3.121 -8.094,-5.448 v 0 c -2.258,-2.328 -4.004,-5.078 -5.237,-8.252 v 0 c -1.236,-3.174 -1.851,-6.631 -1.851,-10.369 v 0 c 0,-3.808 0.615,-7.299 1.851,-10.473 v 0 c 1.233,-3.174 2.962,-5.925 5.185,-8.253 v 0 c 2.22,-2.326 4.918,-4.125 8.093,-5.395 v 0 c 3.174,-1.269 6.664,-1.904 10.473,-1.904 v 0 c 3.597,0 7.017,0.635 10.263,1.904 v 0 c 3.242,1.27 6.065,3.279 8.463,6.031 v 0 l -6.136,5.819 c -2.962,-4.092 -7.16,-6.137 -12.59,-6.137 v 0 c -2.539,0 -4.832,0.477 -6.877,1.429 v 0 c -2.046,0.951 -3.791,2.274 -5.236,3.966 v 0 c -1.447,1.693 -2.576,3.651 -3.385,5.873 v 0 c -0.813,2.221 -1.217,4.601 -1.217,7.14 v 0 c 0,2.539 0.351,4.92 1.057,7.143 v 0 c 0.704,2.22 1.746,4.178 3.122,5.871 v 0 c 1.375,1.693 3.12,3.015 5.237,3.967 v 0 c 2.115,0.953 4.548,1.428 7.299,1.428 v 0 c 2.468,0 4.724,-0.475 6.771,-1.428 v 0 c 2.045,-0.952 3.95,-2.487 5.713,-4.602 v 0 l 6.56,5.818 c -2.47,2.68 -5.344,4.655 -8.622,5.925 v 0 c -3.281,1.27 -6.756,1.905 -10.422,1.905 v 0 c -3.809,0 -7.284,-0.654 -10.42,-1.958" /></g></g></g></g><g
       id="g72"><g
         clip-path="url(#clipPath78)"
         id="g74"><g
           id="g80"><g
             id="g82"><path
               id="path90"
               style="fill:url(#linearGradient88);stroke:none"
               d="M 259.262,143.431 V 63.449 h 8.251 V 87.57 c 0,2.821 0.299,5.396 0.9,7.724 v 0 c 0.599,2.327 1.516,4.338 2.751,6.03 v 0 c 1.233,1.694 2.82,2.998 4.761,3.914 v 0 c 1.938,0.916 4.248,1.376 6.93,1.376 v 0 c 3.878,0 6.734,-1.2 8.569,-3.596 v 0 c 1.833,-2.399 2.751,-5.679 2.751,-9.84 v 0 -29.729 h 8.252 v 30.576 c 0,2.962 -0.371,5.694 -1.112,8.199 v 0 c -0.74,2.503 -1.888,4.637 -3.438,6.401 v 0 c -1.552,1.762 -3.509,3.137 -5.871,4.125 v 0 c -2.364,0.988 -5.168,1.482 -8.412,1.482 v 0 c -1.904,0 -3.701,-0.248 -5.395,-0.741 v 0 c -1.693,-0.495 -3.226,-1.13 -4.602,-1.904 v 0 c -1.375,-0.777 -2.558,-1.639 -3.544,-2.592 v 0 c -0.989,-0.952 -1.764,-1.923 -2.328,-2.909 v 0 h -0.212 v 37.345 z" /></g></g></g></g><g
       id="g92"><g
         clip-path="url(#clipPath98)"
         id="g94"><g
           id="g100"><g
             id="g102"><path
               id="path110"
               style="fill:url(#linearGradient108);stroke:none"
               d="m 331.097,112.327 c -3.244,-1.27 -6.03,-3.052 -8.357,-5.342 v 0 c -2.328,-2.293 -4.163,-5.026 -5.502,-8.2 v 0 c -1.341,-3.174 -2.009,-6.701 -2.009,-10.58 v 0 c 0,-3.879 0.668,-7.405 2.009,-10.579 v 0 c 1.339,-3.174 3.174,-5.909 5.502,-8.199 v 0 c 2.327,-2.293 5.113,-4.073 8.357,-5.343 v 0 c 3.244,-1.269 6.772,-1.904 10.581,-1.904 v 0 c 3.809,0 7.334,0.635 10.578,1.904 v 0 c 3.245,1.27 6.031,3.05 8.36,5.343 v 0 c 2.326,2.29 4.16,5.025 5.5,8.199 v 0 c 1.339,3.174 2.011,6.7 2.011,10.579 v 0 c 0,3.879 -0.672,7.406 -2.011,10.58 v 0 c -1.34,3.174 -3.174,5.907 -5.5,8.2 v 0 c -2.329,2.29 -5.115,4.072 -8.36,5.342 v 0 c -3.244,1.27 -6.769,1.905 -10.578,1.905 v 0 c -3.809,0 -7.337,-0.635 -10.581,-1.905 m 3.334,-41.101 c -2.153,0.951 -4.004,2.255 -5.555,3.913 v 0 c -1.551,1.657 -2.734,3.597 -3.544,5.82 v 0 c -0.812,2.221 -1.217,4.636 -1.217,7.246 v 0 c 0,2.609 0.405,5.025 1.217,7.248 v 0 c 0.81,2.22 1.993,4.16 3.544,5.819 v 0 c 1.551,1.656 3.402,2.962 5.555,3.914 v 0 c 2.15,0.953 4.565,1.428 7.247,1.428 v 0 c 2.679,0 5.095,-0.475 7.247,-1.428 v 0 c 2.151,-0.952 4.002,-2.258 5.553,-3.914 v 0 c 1.551,-1.659 2.734,-3.599 3.546,-5.819 v 0 c 0.809,-2.223 1.216,-4.639 1.216,-7.248 v 0 c 0,-2.61 -0.407,-5.025 -1.216,-7.246 v 0 c -0.812,-2.223 -1.995,-4.163 -3.546,-5.82 v 0 c -1.551,-1.658 -3.402,-2.962 -5.553,-3.913 v 0 c -2.152,-0.952 -4.568,-1.429 -7.247,-1.429 v 0 c -2.682,0 -5.097,0.477 -7.247,1.429" /></g></g></g></g><g
       id="g112"><g
         clip-path="url(#clipPath118)"
         id="g114"><g
           id="g120"><g
             id="g122"><path
               id="path130"
               style="fill:url(#linearGradient128);stroke:none"
               d="m 54.811,139.296 c -4.692,-1.976 -8.746,-4.674 -12.166,-8.094 v 0 c -3.422,-3.422 -6.12,-7.477 -8.094,-12.167 v 0 c -1.975,-4.691 -2.962,-9.752 -2.962,-15.181 v 0 c 0,-5.432 0.987,-10.493 2.962,-15.182 v 0 c 1.974,-4.691 4.672,-8.747 8.094,-12.167 v 0 c 3.42,-3.422 7.474,-6.12 12.166,-8.094 v 0 c 4.69,-1.975 9.787,-2.962 15.287,-2.962 v 0 h 43.483 v 7.617 h -23.17 v 0.212 c 2.821,1.199 5.344,2.874 7.565,5.026 v 0 c 2.222,2.15 4.126,4.583 5.713,7.3 v 0 c 1.587,2.715 2.804,5.643 3.65,8.781 v 0 c 0.846,3.136 1.27,6.294 1.27,9.469 v 0 c 0,5.429 -0.989,10.49 -2.963,15.181 v 0 c -1.975,4.69 -4.673,8.745 -8.093,12.167 v 0 c -3.422,3.42 -7.476,6.118 -12.166,8.094 v 0 c -4.692,1.973 -9.787,2.962 -15.289,2.962 v 0 c -5.5,0 -10.597,-0.989 -15.287,-2.962 m 3.756,-63.267 c -3.527,1.55 -6.578,3.684 -9.152,6.401 v 0 c -2.575,2.715 -4.601,5.906 -6.083,9.574 v 0 c -1.481,3.667 -2.222,7.617 -2.222,11.85 v 0 c 0,4.16 0.723,8.074 2.169,11.743 v 0 c 1.445,3.667 3.455,6.859 6.03,9.574 v 0 c 2.574,2.714 5.624,4.867 9.152,6.454 v 0 c 3.526,1.587 7.406,2.38 11.637,2.38 v 0 c 4.233,0 8.11,-0.793 11.638,-2.38 v 0 c 3.526,-1.587 6.576,-3.74 9.151,-6.454 v 0 c 2.574,-2.715 4.585,-5.907 6.031,-9.574 v 0 c 1.445,-3.669 2.169,-7.583 2.169,-11.743 v 0 c 0,-4.233 -0.74,-8.183 -2.222,-11.85 v 0 c -1.48,-3.668 -3.509,-6.859 -6.083,-9.574 v 0 c -2.576,-2.717 -5.644,-4.851 -9.204,-6.401 v 0 c -3.563,-1.552 -7.389,-2.328 -11.48,-2.328 v 0 c -4.162,0 -8.005,0.776 -11.531,2.328" /></g></g></g></g><g
       id="g132"><g
         clip-path="url(#clipPath138)"
         id="g134"><g
           id="g140"><g
             id="g142"><path
               id="path150"
               style="fill:url(#linearGradient148);stroke:none"
               d="M 150.494,140.353 117.485,65.449 h 10.051 l 7.723,18.408 h 19.601 l 3.343,8.253 H 138.75 l 15.552,36.817 h 0.212 l 9.27,-23.042 4.744,11.709 -9.676,22.759 z" /></g></g></g></g></g></svg>